<svg width="14" height="17" viewBox="0 0 14 17" fill="none" xmlns="http://www.w3.org/2000/svg">
<path d="M5.16211 1.83322H2.49544C1.75906 1.83322 1.16211 2.43018 1.16211 3.16655V5.83322C1.16211 6.5696 1.75906 7.16655 2.49544 7.16655H5.16211C5.89849 7.16655 6.49544 6.5696 6.49544 5.83322V3.16655C6.49544 2.43018 5.89849 1.83322 5.16211 1.83322Z" stroke="#E6704B" stroke-width="2" stroke-linecap="round" stroke-linejoin="round"/>
<path d="M5.16211 9.83322H2.49544C1.75906 9.83322 1.16211 10.4302 1.16211 11.1666V13.8332C1.16211 14.5696 1.75906 15.1666 2.49544 15.1666H5.16211C5.89849 15.1666 6.49544 14.5696 6.49544 13.8332V11.1666C6.49544 10.4302 5.89849 9.83322 5.16211 9.83322Z" stroke="#E6704B" stroke-width="2" stroke-linecap="round" stroke-linejoin="round"/>
<path d="M12.4961 11.1664H8.49609" stroke="#E6704B" stroke-width="2" stroke-linecap="round" stroke-linejoin="round"/>
<path d="M11.1628 13.8332H8.49609" stroke="#E6704B" stroke-width="2" stroke-linecap="round" stroke-linejoin="round"/>
<path d="M11.1628 5.83322H8.49609" stroke="#E6704B" stroke-width="2" stroke-linecap="round" stroke-linejoin="round"/>
<path d="M12.4961 3.16644H8.49609" stroke="#E6704B" stroke-width="2" stroke-linecap="round" stroke-linejoin="round"/>
</svg>
