<svg width="16" height="16" viewBox="0 0 16 16" fill="none" xmlns="http://www.w3.org/2000/svg">
<g clip-path="url(#clip0_6649_27311)">
<path fill-rule="evenodd" clip-rule="evenodd" d="M8.54612 16H0.883077C0.395224 16 0 15.6045 0 15.1169V0.88307C0 0.395283 0.395286 0 0.883077 0H15.117C15.6047 0 16 0.395283 16 0.88307V15.1169C16 15.6046 15.6046 16 15.117 16H11.0398V9.80392H13.1195L13.4309 7.3892H11.0398V5.84755C11.0398 5.14843 11.2339 4.672 12.2364 4.672L13.5151 4.67144V2.5117C13.294 2.48227 12.5349 2.41652 11.6519 2.41652C9.80828 2.41652 8.54612 3.54184 8.54612 5.6084V7.3892H6.46104V9.80392H8.54612V16Z" fill="#151515"/>
</g>
<defs>
<clipPath id="clip0_6649_27311">
<rect width="16" height="16" fill="white"/>
</clipPath>
</defs>
</svg>
