<svg width="109" height="20" viewBox="0 0 109 20" fill="none" xmlns="http://www.w3.org/2000/svg">
<g clip-path="url(#clip0_6463_267)">
<path fill-rule="evenodd" clip-rule="evenodd" d="M9.99526 2.65829C10.0528 2.47575 10.1671 2.31632 10.3214 2.20315C10.4758 2.08998 10.6622 2.02896 10.8536 2.02896C11.045 2.02896 11.2314 2.08998 11.3858 2.20315C11.5401 2.31632 11.6544 2.47575 11.7119 2.65829L13.2619 7.42495H18.2619C18.4602 7.41746 18.6554 7.47507 18.8178 7.58899C18.9802 7.7029 19.1009 7.86686 19.1614 8.0558C19.2218 8.24474 19.2188 8.44829 19.1527 8.63533C19.0865 8.82238 18.961 8.98263 18.7953 9.09162L14.7369 12.0333L16.2869 16.8083C16.3482 16.9902 16.3498 17.1869 16.2913 17.3697C16.2329 17.5526 16.1175 17.7119 15.9621 17.8245C15.8067 17.9371 15.6193 17.9971 15.4274 17.9957C15.2355 17.9943 15.049 17.9315 14.8953 17.8166L10.8286 14.8416L6.77026 17.7916C6.61651 17.9065 6.43006 17.9693 6.23813 17.9707C6.04619 17.9721 5.85883 17.9121 5.7034 17.7995C5.54797 17.6869 5.43261 17.5276 5.37418 17.3447C5.31574 17.1619 5.31729 16.9652 5.37859 16.7833L6.92859 12.0083L2.87026 9.06662C2.70449 8.95763 2.57897 8.79738 2.51286 8.61033C2.44675 8.42329 2.44369 8.21975 2.50415 8.0308C2.56461 7.84186 2.68527 7.6779 2.84769 7.56398C3.0101 7.45007 3.20535 7.39246 3.40359 7.39995H8.40359L9.99526 2.65829Z" fill="#FDBC15"/>
<path fill-rule="evenodd" clip-rule="evenodd" d="M31.9953 2.65829C32.0528 2.47575 32.1671 2.31632 32.3214 2.20315C32.4758 2.08998 32.6622 2.02896 32.8536 2.02896C33.045 2.02896 33.2314 2.08998 33.3858 2.20315C33.5401 2.31632 33.6544 2.47575 33.7119 2.65829L35.2619 7.42495H40.2619C40.4602 7.41746 40.6554 7.47507 40.8178 7.58899C40.9802 7.7029 41.1009 7.86686 41.1614 8.0558C41.2218 8.24474 41.2188 8.44829 41.1527 8.63533C41.0865 8.82238 40.961 8.98263 40.7953 9.09162L36.7369 12.0333L38.2869 16.8083C38.3482 16.9902 38.3498 17.1869 38.2913 17.3697C38.2329 17.5526 38.1175 17.7119 37.9621 17.8245C37.8067 17.9371 37.6193 17.9971 37.4274 17.9957C37.2355 17.9943 37.049 17.9315 36.8953 17.8166L32.8286 14.8416L28.7703 17.7916C28.6165 17.9065 28.4301 17.9693 28.2381 17.9707C28.0462 17.9721 27.8588 17.9121 27.7034 17.7995C27.548 17.6869 27.4326 17.5276 27.3742 17.3447C27.3157 17.1619 27.3173 16.9652 27.3786 16.7833L28.9286 12.0083L24.8703 9.06662C24.7045 8.95763 24.579 8.79738 24.5129 8.61033C24.4467 8.42329 24.4437 8.21975 24.5042 8.0308C24.5646 7.84186 24.6853 7.6779 24.8477 7.56398C25.0101 7.45007 25.2053 7.39246 25.4036 7.39995H30.4036L31.9953 2.65829Z" fill="#FDBC15"/>
<path fill-rule="evenodd" clip-rule="evenodd" d="M53.9953 2.65829C54.0528 2.47575 54.1671 2.31632 54.3214 2.20315C54.4758 2.08998 54.6622 2.02896 54.8536 2.02896C55.045 2.02896 55.2314 2.08998 55.3858 2.20315C55.5401 2.31632 55.6544 2.47575 55.7119 2.65829L57.2619 7.42495H62.2619C62.4602 7.41746 62.6554 7.47507 62.8178 7.58899C62.9802 7.7029 63.1009 7.86686 63.1614 8.0558C63.2218 8.24474 63.2188 8.44829 63.1527 8.63533C63.0865 8.82238 62.961 8.98263 62.7953 9.09162L58.7369 12.0333L60.2869 16.8083C60.3482 16.9902 60.3498 17.1869 60.2913 17.3697C60.2329 17.5526 60.1175 17.7119 59.9621 17.8245C59.8067 17.9371 59.6193 17.9971 59.4274 17.9957C59.2355 17.9943 59.049 17.9315 58.8953 17.8166L54.8286 14.8416L50.7703 17.7916C50.6165 17.9065 50.4301 17.9693 50.2381 17.9707C50.0462 17.9721 49.8588 17.9121 49.7034 17.7995C49.548 17.6869 49.4326 17.5276 49.3742 17.3447C49.3157 17.1619 49.3173 16.9652 49.3786 16.7833L50.9286 12.0083L46.8703 9.06662C46.7045 8.95763 46.579 8.79738 46.5129 8.61033C46.4467 8.42329 46.4437 8.21975 46.5042 8.0308C46.5646 7.84186 46.6853 7.6779 46.8477 7.56398C47.0101 7.45007 47.2053 7.39246 47.4036 7.39995H52.4036L53.9953 2.65829Z" fill="#FDBC15"/>
<path fill-rule="evenodd" clip-rule="evenodd" d="M75.9953 2.65829C76.0528 2.47575 76.1671 2.31632 76.3214 2.20315C76.4758 2.08998 76.6622 2.02896 76.8536 2.02896C77.045 2.02896 77.2314 2.08998 77.3858 2.20315C77.5401 2.31632 77.6544 2.47575 77.7119 2.65829L79.2619 7.42495H84.2619C84.4602 7.41746 84.6554 7.47507 84.8178 7.58899C84.9802 7.7029 85.1009 7.86686 85.1614 8.0558C85.2218 8.24474 85.2188 8.44829 85.1527 8.63533C85.0865 8.82238 84.961 8.98263 84.7953 9.09162L80.7369 12.0333L82.2869 16.8083C82.3482 16.9902 82.3498 17.1869 82.2913 17.3697C82.2329 17.5526 82.1175 17.7119 81.9621 17.8245C81.8067 17.9371 81.6193 17.9971 81.4274 17.9957C81.2355 17.9943 81.049 17.9315 80.8953 17.8166L76.8286 14.8416L72.7703 17.7916C72.6165 17.9065 72.4301 17.9693 72.2381 17.9707C72.0462 17.9721 71.8588 17.9121 71.7034 17.7995C71.548 17.6869 71.4326 17.5276 71.3742 17.3447C71.3157 17.1619 71.3173 16.9652 71.3786 16.7833L72.9286 12.0083L68.8703 9.06662C68.7045 8.95763 68.579 8.79738 68.5129 8.61033C68.4467 8.42329 68.4437 8.21975 68.5042 8.0308C68.5646 7.84186 68.6853 7.6779 68.8477 7.56398C69.0101 7.45007 69.2053 7.39246 69.4036 7.39995H74.4036L75.9953 2.65829Z" fill="#FDBC15"/>
<path fill-rule="evenodd" clip-rule="evenodd" d="M97.9953 2.65829C98.0528 2.47575 98.1671 2.31632 98.3214 2.20315C98.4758 2.08998 98.6622 2.02896 98.8536 2.02896C99.045 2.02896 99.2314 2.08998 99.3858 2.20315C99.5401 2.31632 99.6544 2.47575 99.7119 2.65829L101.262 7.42495H106.262C106.46 7.41746 106.655 7.47507 106.818 7.58899C106.98 7.7029 107.101 7.86686 107.161 8.0558C107.222 8.24474 107.219 8.44829 107.153 8.63533C107.087 8.82238 106.961 8.98263 106.795 9.09162L102.737 12.0333L104.287 16.8083C104.348 16.9902 104.35 17.1869 104.291 17.3697C104.233 17.5526 104.118 17.7119 103.962 17.8245C103.807 17.9371 103.619 17.9971 103.427 17.9957C103.235 17.9943 103.049 17.9315 102.895 17.8166L98.8286 14.8416L94.7703 17.7916C94.6165 17.9065 94.4301 17.9693 94.2381 17.9707C94.0462 17.9721 93.8588 17.9121 93.7034 17.7995C93.548 17.6869 93.4326 17.5276 93.3742 17.3447C93.3157 17.1619 93.3173 16.9652 93.3786 16.7833L94.9286 12.0083L90.8703 9.06662C90.7045 8.95763 90.579 8.79738 90.5129 8.61033C90.4467 8.42329 90.4437 8.21975 90.5042 8.0308C90.5646 7.84186 90.6853 7.6779 90.8477 7.56399C91.0101 7.45007 91.2053 7.39246 91.4036 7.39995H96.4036L97.9953 2.65829Z" stroke="#D1D1D1" stroke-width="1.5" stroke-linecap="round" stroke-linejoin="round"/>
</g>
<defs>
<clipPath id="clip0_6463_267">
<rect width="108" height="20" fill="white" transform="translate(0.828125)"/>
</clipPath>
</defs>
</svg>
