<svg width="17" height="17" viewBox="0 0 17 17" fill="none" xmlns="http://www.w3.org/2000/svg">
<g clip-path="url(#clip0_6463_335)">
<path fill-rule="evenodd" clip-rule="evenodd" d="M9.70094 3.76016C10.3375 3.12365 11.2008 2.76605 12.1009 2.76605C13.0011 2.76605 13.8644 3.12365 14.5009 3.76016C15.1375 4.39668 15.4951 5.25999 15.4951 6.16016C15.4951 7.06034 15.1375 7.92364 14.5009 8.56016L13.6276 9.4335L8.8276 14.2335L4.0276 9.4335L3.15427 8.56016C2.51775 7.92364 2.16016 7.06034 2.16016 6.16016C2.16016 5.25999 2.51775 4.39668 3.15427 3.76016C3.79079 3.12365 4.65409 2.76605 5.55427 2.76605C6.45444 2.76605 7.31775 3.12365 7.95427 3.76016L8.8276 4.6335L9.70094 3.76016Z" stroke="#E6704B" stroke-width="2" stroke-linecap="round" stroke-linejoin="round"/>
</g>
<defs>
<clipPath id="clip0_6463_335">
<rect width="16" height="16" fill="white" transform="translate(0.828125 0.5)"/>
</clipPath>
</defs>
</svg>
