<svg width="570" height="436" viewBox="0 0 570 436" fill="none" xmlns="http://www.w3.org/2000/svg">
<rect x="0.5" width="569" height="436" rx="12" fill="#F9F9F9"/>
<g clip-path="url(#clip0_6463_25206)">
<rect x="16.5" y="16" width="58" height="26" rx="12" fill="#F4F8EC"/>
<path d="M27.352 29.424H32.44V28.008H27.352V29.424ZM37.0155 26.556H38.6595C38.7195 26.004 39.0675 25.476 39.8835 25.476C40.6515 25.476 41.0715 25.884 41.0715 26.568C41.0715 27.432 40.3515 27.708 39.3675 27.708H39.0195V29.088H39.3675C40.6155 29.088 41.2395 29.448 41.2395 30.432C41.2395 31.128 40.8075 31.656 39.9675 31.656C39.0675 31.656 38.5635 31.116 38.5275 30.36H36.8955C36.9675 32.196 38.2755 33.06 40.0035 33.06C41.8395 33.06 42.8475 32.004 42.8475 30.576C42.8475 29.388 42.2595 28.668 41.3715 28.392V28.344C42.0075 28.128 42.6915 27.456 42.6915 26.364C42.6915 25.068 41.7315 24.048 39.9315 24.048C38.2515 24.048 37.0995 24.936 37.0155 26.556ZM50.2711 26.436C50.1391 25.2 49.2991 24.048 47.5111 24.048C45.2911 24.048 44.3671 25.632 44.3671 28.488C44.3671 31.2 45.0151 33.024 47.6071 33.024C49.4791 33.024 50.5231 31.788 50.5231 30.096C50.5231 28.272 49.4311 27.24 47.8711 27.24C47.0191 27.24 46.2271 27.6 45.8311 28.26C45.8551 26.244 46.3591 25.428 47.4511 25.428C48.2071 25.428 48.5551 25.788 48.7111 26.436H50.2711ZM47.4871 28.62C48.4591 28.62 48.9271 29.232 48.9271 30.132C48.9271 31.032 48.3871 31.596 47.5231 31.596C46.5391 31.596 45.9871 31.008 45.9871 30.072C45.9871 29.076 46.7071 28.62 47.4871 28.62ZM54.5182 26.4C54.5182 27.66 55.3342 28.356 56.4262 28.356C57.5182 28.356 58.3342 27.66 58.3342 26.4C58.3342 25.152 57.5182 24.456 56.4262 24.456C55.3342 24.456 54.5182 25.152 54.5182 26.4ZM56.4142 25.464C56.8342 25.464 57.0982 25.74 57.0982 26.4C57.0982 27.06 56.8342 27.348 56.4142 27.348C56.0062 27.348 55.7542 27.06 55.7542 26.4C55.7542 25.74 56.0062 25.464 56.4142 25.464ZM55.8742 33H57.5062L62.2222 24.6H60.5782L55.8742 33ZM59.7862 31.188C59.7862 32.46 60.6022 33.144 61.6942 33.144C62.7742 33.144 63.5782 32.46 63.5782 31.188C63.5782 29.928 62.7742 29.244 61.6942 29.244C60.6022 29.244 59.7862 29.928 59.7862 31.188ZM61.6822 30.252C62.0902 30.252 62.3542 30.528 62.3542 31.188C62.3542 31.86 62.0902 32.136 61.6822 32.136C61.2622 32.136 60.9982 31.86 60.9982 31.188C60.9982 30.528 61.2622 30.252 61.6822 30.252Z" fill="#6A983C"/>
<rect x="86.5" y="16" width="103" height="26" rx="12" fill="#F4F8EC"/>
<path d="M97.328 33H99.008V29.46H101.684V28.128H99.008V25.98H102.5V24.624H97.328V33ZM105.371 29.688C105.371 28.404 105.971 28.02 106.967 28.02H107.411V26.256C106.487 26.256 105.791 26.7 105.371 27.384V26.352H103.691V33H105.371V29.688ZM111.399 27.624C112.263 27.624 112.959 28.176 112.983 29.052H109.827C109.959 28.14 110.595 27.624 111.399 27.624ZM114.555 30.912H112.743C112.527 31.356 112.131 31.716 111.411 31.716C110.571 31.716 109.899 31.164 109.815 30.18H114.675C114.711 29.964 114.723 29.748 114.723 29.532C114.723 27.552 113.367 26.244 111.447 26.244C109.479 26.244 108.111 27.576 108.111 29.676C108.111 31.764 109.515 33.108 111.447 33.108C113.091 33.108 114.195 32.136 114.555 30.912ZM118.805 27.624C119.669 27.624 120.365 28.176 120.389 29.052H117.233C117.365 28.14 118.001 27.624 118.805 27.624ZM121.961 30.912H120.149C119.933 31.356 119.537 31.716 118.817 31.716C117.977 31.716 117.305 31.164 117.221 30.18H122.081C122.117 29.964 122.129 29.748 122.129 29.532C122.129 27.552 120.773 26.244 118.853 26.244C116.885 26.244 115.517 27.576 115.517 29.676C115.517 31.764 116.921 33.108 118.853 33.108C120.497 33.108 121.601 32.136 121.961 30.912ZM131.375 31.104C131.327 28.668 127.643 29.424 127.643 28.212C127.643 27.828 127.967 27.576 128.591 27.576C129.251 27.576 129.659 27.924 129.707 28.44H131.315C131.219 27.12 130.247 26.244 128.639 26.244C126.995 26.244 126.011 27.132 126.011 28.236C126.011 30.672 129.767 29.916 129.767 31.104C129.767 31.488 129.407 31.788 128.747 31.788C128.075 31.788 127.607 31.404 127.547 30.9H125.855C125.927 32.136 127.091 33.108 128.759 33.108C130.379 33.108 131.375 32.244 131.375 31.104ZM132.754 33H134.434V29.328C134.434 28.26 135.022 27.684 135.934 27.684C136.822 27.684 137.41 28.26 137.41 29.328V33H139.09V29.1C139.09 27.264 137.998 26.256 136.498 26.256C135.61 26.256 134.866 26.616 134.434 27.18V24.12H132.754V33ZM140.687 33H142.367V26.352H140.687V33ZM141.539 25.56C142.127 25.56 142.571 25.128 142.571 24.576C142.571 24.024 142.127 23.592 141.539 23.592C140.939 23.592 140.507 24.024 140.507 24.576C140.507 25.128 140.939 25.56 141.539 25.56ZM145.707 27.312V26.352H144.027V36.168H145.707V32.052C146.115 32.592 146.859 33.108 147.903 33.108C149.607 33.108 150.939 31.728 150.939 29.652C150.939 27.576 149.607 26.244 147.903 26.244C146.871 26.244 146.103 26.748 145.707 27.312ZM149.223 29.652C149.223 30.912 148.371 31.632 147.459 31.632C146.559 31.632 145.707 30.936 145.707 29.676C145.707 28.416 146.559 27.72 147.459 27.72C148.371 27.72 149.223 28.392 149.223 29.652ZM153.84 27.312V26.352H152.16V36.168H153.84V32.052C154.248 32.592 154.992 33.108 156.036 33.108C157.74 33.108 159.072 31.728 159.072 29.652C159.072 27.576 157.74 26.244 156.036 26.244C155.004 26.244 154.236 26.748 153.84 27.312ZM157.356 29.652C157.356 30.912 156.504 31.632 155.592 31.632C154.692 31.632 153.84 30.936 153.84 29.676C153.84 28.416 154.692 27.72 155.592 27.72C156.504 27.72 157.356 28.392 157.356 29.652ZM160.293 33H161.973V26.352H160.293V33ZM161.145 25.56C161.733 25.56 162.177 25.128 162.177 24.576C162.177 24.024 161.733 23.592 161.145 23.592C160.545 23.592 160.113 24.024 160.113 24.576C160.113 25.128 160.545 25.56 161.145 25.56ZM168.289 33H169.969V29.1C169.969 27.264 168.865 26.256 167.317 26.256C166.465 26.256 165.745 26.616 165.313 27.18V26.352H163.633V33H165.313V29.328C165.313 28.26 165.901 27.684 166.813 27.684C167.701 27.684 168.289 28.26 168.289 29.328V33ZM171.134 29.652C171.134 31.728 172.478 33.108 174.17 33.108C175.214 33.108 175.97 32.592 176.366 32.016V33.048C176.366 34.284 175.646 34.812 174.722 34.812C173.882 34.812 173.258 34.416 173.09 33.816H171.422C171.59 35.34 172.898 36.276 174.77 36.276C176.954 36.276 178.058 34.848 178.058 33.048V26.352H176.366V27.3C175.97 26.724 175.214 26.244 174.17 26.244C172.478 26.244 171.134 27.576 171.134 29.652ZM176.366 29.676C176.366 30.936 175.526 31.632 174.602 31.632C173.702 31.632 172.85 30.912 172.85 29.652C172.85 28.392 173.702 27.72 174.602 27.72C175.526 27.72 176.366 28.416 176.366 29.676Z" fill="#6A983C"/>
</g>
<defs>
<clipPath id="clip0_6463_25206">
<rect width="173" height="26" fill="white" transform="translate(16.5 16)"/>
</clipPath>
</defs>
</svg>
