<svg width="100" height="143" viewBox="0 0 100 143" fill="none" xmlns="http://www.w3.org/2000/svg">
<g clip-path="url(#clip0_6584_26136)">
<rect width="100" height="67" rx="12" fill="#F9F9F9"/>
<g clip-path="url(#clip1_6584_26136)">
<g clip-path="url(#clip2_6584_26136)">
<path fill-rule="evenodd" clip-rule="evenodd" d="M6.65559 83.445C7.13297 82.9676 7.78045 82.6994 8.45559 82.6994C9.13072 82.6994 9.7782 82.9676 10.2556 83.445C10.733 83.9224 11.0012 84.5699 11.0012 85.245C11.0012 85.9201 10.733 86.5676 10.2556 87.045L9.60059 87.7L6.00059 91.3L2.40058 87.7L1.74558 87.045C1.26819 86.5676 1 85.9201 1 85.245C1 84.5699 1.26819 83.9224 1.74558 83.445C2.22297 82.9676 2.87045 82.6994 3.54558 82.6994C4.22072 82.6994 4.86819 82.9676 5.34558 83.445L6.00059 84.1L6.65559 83.445Z" stroke="#E6704B" stroke-linecap="round" stroke-linejoin="bevel"/>
<path d="M26.6543 92H25.6699L23.9414 86.2637C23.8594 86.0098 23.7676 85.6895 23.666 85.3027C23.5645 84.916 23.5117 84.6836 23.5078 84.6055C23.4219 85.1211 23.2852 85.6855 23.0977 86.2988L21.4219 92H20.4375L18.1582 83.4336H19.2129L20.5664 88.7246C20.7539 89.4668 20.8906 90.1387 20.9766 90.7402C21.082 90.0254 21.2383 89.3262 21.4453 88.6426L22.9805 83.4336H24.0352L25.6465 88.6895C25.834 89.2949 25.9922 89.9785 26.1211 90.7402C26.1953 90.1855 26.3359 89.5098 26.543 88.7129L27.8906 83.4336H28.9453L26.6543 92ZM31.1133 92H30.1406V85.5781H31.1133V92ZM30.0586 83.8379C30.0586 83.6152 30.1133 83.4531 30.2227 83.3516C30.332 83.2461 30.4688 83.1934 30.6328 83.1934C30.7891 83.1934 30.9238 83.2461 31.0371 83.3516C31.1504 83.457 31.207 83.6191 31.207 83.8379C31.207 84.0566 31.1504 84.2207 31.0371 84.3301C30.9238 84.4355 30.7891 84.4883 30.6328 84.4883C30.4688 84.4883 30.332 84.4355 30.2227 84.3301C30.1133 84.2207 30.0586 84.0566 30.0586 83.8379ZM37.3184 90.248C37.3184 90.8457 37.0957 91.3066 36.6504 91.6309C36.2051 91.9551 35.5801 92.1172 34.7754 92.1172C33.9238 92.1172 33.2598 91.9824 32.7832 91.7129V90.8105C33.0918 90.9668 33.4219 91.0898 33.7734 91.1797C34.1289 91.2695 34.4707 91.3145 34.7988 91.3145C35.3066 91.3145 35.6973 91.2344 35.9707 91.0742C36.2441 90.9102 36.3809 90.6621 36.3809 90.3301C36.3809 90.0801 36.2715 89.8672 36.0527 89.6914C35.8379 89.5117 35.416 89.3008 34.7871 89.0586C34.1895 88.8359 33.7637 88.6426 33.5098 88.4785C33.2598 88.3105 33.0723 88.1211 32.9473 87.9102C32.8262 87.6992 32.7656 87.4473 32.7656 87.1543C32.7656 86.6309 32.9785 86.2188 33.4043 85.918C33.8301 85.6133 34.4141 85.4609 35.1562 85.4609C35.8477 85.4609 36.5234 85.6016 37.1836 85.8828L36.8379 86.6738C36.1934 86.4082 35.6094 86.2754 35.0859 86.2754C34.625 86.2754 34.2773 86.3477 34.043 86.4922C33.8086 86.6367 33.6914 86.8359 33.6914 87.0898C33.6914 87.2617 33.7344 87.4082 33.8203 87.5293C33.9102 87.6504 34.0527 87.7656 34.248 87.875C34.4434 87.9844 34.8184 88.1426 35.373 88.3496C36.1348 88.627 36.6484 88.9062 36.9141 89.1875C37.1836 89.4688 37.3184 89.8223 37.3184 90.248ZM43.3008 92V87.8457C43.3008 87.3223 43.1816 86.9316 42.9434 86.6738C42.7051 86.416 42.332 86.2871 41.8242 86.2871C41.1484 86.2871 40.6543 86.4707 40.3418 86.8379C40.0332 87.2051 39.8789 87.8066 39.8789 88.6426V92H38.9062V82.8828H39.8789V85.6426C39.8789 85.9746 39.8633 86.25 39.832 86.4688H39.8906C40.082 86.1602 40.3535 85.918 40.7051 85.7422C41.0605 85.5625 41.4648 85.4727 41.918 85.4727C42.7031 85.4727 43.291 85.6602 43.6816 86.0352C44.0762 86.4062 44.2734 86.998 44.2734 87.8105V92H43.3008ZM47.25 92H46.2773V82.8828H47.25V92ZM50.2852 92H49.3125V85.5781H50.2852V92ZM49.2305 83.8379C49.2305 83.6152 49.2852 83.4531 49.3945 83.3516C49.5039 83.2461 49.6406 83.1934 49.8047 83.1934C49.9609 83.1934 50.0957 83.2461 50.209 83.3516C50.3223 83.457 50.3789 83.6191 50.3789 83.8379C50.3789 84.0566 50.3223 84.2207 50.209 84.3301C50.0957 84.4355 49.9609 84.4883 49.8047 84.4883C49.6406 84.4883 49.5039 84.4355 49.3945 84.3301C49.2852 84.2207 49.2305 84.0566 49.2305 83.8379ZM56.4902 90.248C56.4902 90.8457 56.2676 91.3066 55.8223 91.6309C55.377 91.9551 54.752 92.1172 53.9473 92.1172C53.0957 92.1172 52.4316 91.9824 51.9551 91.7129V90.8105C52.2637 90.9668 52.5938 91.0898 52.9453 91.1797C53.3008 91.2695 53.6426 91.3145 53.9707 91.3145C54.4785 91.3145 54.8691 91.2344 55.1426 91.0742C55.416 90.9102 55.5527 90.6621 55.5527 90.3301C55.5527 90.0801 55.4434 89.8672 55.2246 89.6914C55.0098 89.5117 54.5879 89.3008 53.959 89.0586C53.3613 88.8359 52.9355 88.6426 52.6816 88.4785C52.4316 88.3105 52.2441 88.1211 52.1191 87.9102C51.998 87.6992 51.9375 87.4473 51.9375 87.1543C51.9375 86.6309 52.1504 86.2188 52.5762 85.918C53.002 85.6133 53.5859 85.4609 54.3281 85.4609C55.0195 85.4609 55.6953 85.6016 56.3555 85.8828L56.0098 86.6738C55.3652 86.4082 54.7812 86.2754 54.2578 86.2754C53.7969 86.2754 53.4492 86.3477 53.2148 86.4922C52.9805 86.6367 52.8633 86.8359 52.8633 87.0898C52.8633 87.2617 52.9062 87.4082 52.9922 87.5293C53.082 87.6504 53.2246 87.7656 53.4199 87.875C53.6152 87.9844 53.9902 88.1426 54.5449 88.3496C55.3066 88.627 55.8203 88.9062 56.0859 89.1875C56.3555 89.4688 56.4902 89.8223 56.4902 90.248ZM60.1523 91.3145C60.3242 91.3145 60.4902 91.3027 60.6504 91.2793C60.8105 91.252 60.9375 91.2246 61.0312 91.1973V91.9414C60.9258 91.9922 60.7695 92.0332 60.5625 92.0645C60.3594 92.0996 60.1758 92.1172 60.0117 92.1172C58.7695 92.1172 58.1484 91.4629 58.1484 90.1543V86.334H57.2285V85.8652L58.1484 85.4609L58.5586 84.0898H59.1211V85.5781H60.9844V86.334H59.1211V90.1133C59.1211 90.5 59.2129 90.7969 59.3965 91.0039C59.5801 91.2109 59.832 91.3145 60.1523 91.3145Z" fill="#A9A9A9"/>
</g>
<g clip-path="url(#clip3_6584_26136)">
<path d="M4.75 106H2.75C2.19772 106 1.75 106.448 1.75 107V109C1.75 109.552 2.19772 110 2.75 110H4.75C5.30228 110 5.75 109.552 5.75 109V107C5.75 106.448 5.30228 106 4.75 106Z" stroke="#E6704B" stroke-linecap="round" stroke-linejoin="bevel"/>
<path d="M4.75 112H2.75C2.19772 112 1.75 112.448 1.75 113V115C1.75 115.552 2.19772 116 2.75 116H4.75C5.30228 116 5.75 115.552 5.75 115V113C5.75 112.448 5.30228 112 4.75 112Z" stroke="#E6704B" stroke-linecap="round" stroke-linejoin="bevel"/>
<path d="M10.25 113H7.25" stroke="#E6704B" stroke-linecap="round" stroke-linejoin="bevel"/>
<path d="M9.25 115H7.25" stroke="#E6704B" stroke-linecap="round" stroke-linejoin="bevel"/>
<path d="M9.25 109H7.25" stroke="#E6704B" stroke-linecap="round" stroke-linejoin="bevel"/>
<path d="M10.25 107H7.25" stroke="#E6704B" stroke-linecap="round" stroke-linejoin="bevel"/>
<path d="M22.8457 108.201C21.9043 108.201 21.1602 108.516 20.6133 109.145C20.0703 109.77 19.7988 110.627 19.7988 111.717C19.7988 112.838 20.0605 113.705 20.584 114.318C21.1113 114.928 21.8613 115.232 22.834 115.232C23.4316 115.232 24.1133 115.125 24.8789 114.91V115.783C24.2852 116.006 23.5527 116.117 22.6816 116.117C21.4199 116.117 20.4453 115.734 19.7578 114.969C19.0742 114.203 18.7324 113.115 18.7324 111.705C18.7324 110.822 18.8965 110.049 19.2246 109.385C19.5566 108.721 20.0332 108.209 20.6543 107.85C21.2793 107.49 22.0137 107.311 22.8574 107.311C23.7559 107.311 24.541 107.475 25.2129 107.803L24.791 108.658C24.1426 108.354 23.4941 108.201 22.8457 108.201ZM32.1445 112.783C32.1445 113.83 31.8809 114.648 31.3535 115.238C30.8262 115.824 30.0977 116.117 29.168 116.117C28.5938 116.117 28.084 115.982 27.6387 115.713C27.1934 115.443 26.8496 115.057 26.6074 114.553C26.3652 114.049 26.2441 113.459 26.2441 112.783C26.2441 111.736 26.5059 110.922 27.0293 110.34C27.5527 109.754 28.2793 109.461 29.209 109.461C30.1074 109.461 30.8203 109.76 31.3477 110.357C31.8789 110.955 32.1445 111.764 32.1445 112.783ZM27.252 112.783C27.252 113.604 27.416 114.229 27.7441 114.658C28.0723 115.088 28.5547 115.303 29.1914 115.303C29.8281 115.303 30.3105 115.09 30.6387 114.664C30.9707 114.234 31.1367 113.607 31.1367 112.783C31.1367 111.967 30.9707 111.348 30.6387 110.926C30.3105 110.5 29.8242 110.287 29.1797 110.287C28.543 110.287 28.0625 110.496 27.7383 110.914C27.4141 111.332 27.252 111.955 27.252 112.783ZM42.041 116V111.822C42.041 111.311 41.9316 110.928 41.7129 110.674C41.4941 110.416 41.1543 110.287 40.6934 110.287C40.0879 110.287 39.6406 110.461 39.3516 110.809C39.0625 111.156 38.918 111.691 38.918 112.414V116H37.9453V111.822C37.9453 111.311 37.8359 110.928 37.6172 110.674C37.3984 110.416 37.0566 110.287 36.5918 110.287C35.9824 110.287 35.5352 110.471 35.25 110.838C34.9688 111.201 34.8281 111.799 34.8281 112.631V116H33.8555V109.578H34.6465L34.8047 110.457H34.8516C35.0352 110.145 35.293 109.9 35.625 109.725C35.9609 109.549 36.3359 109.461 36.75 109.461C37.7539 109.461 38.4102 109.824 38.7188 110.551H38.7656C38.957 110.215 39.2344 109.949 39.5977 109.754C39.9609 109.559 40.375 109.461 40.8398 109.461C41.5664 109.461 42.1094 109.648 42.4688 110.023C42.832 110.395 43.0137 110.99 43.0137 111.811V116H42.041ZM48.0117 116.117C47.5938 116.117 47.2109 116.041 46.8633 115.889C46.5195 115.732 46.2305 115.494 45.9961 115.174H45.9258C45.9727 115.549 45.9961 115.904 45.9961 116.24V118.883H45.0234V109.578H45.8145L45.9492 110.457H45.9961C46.2461 110.105 46.5371 109.852 46.8691 109.695C47.2012 109.539 47.582 109.461 48.0117 109.461C48.8633 109.461 49.5195 109.752 49.9805 110.334C50.4453 110.916 50.6777 111.732 50.6777 112.783C50.6777 113.838 50.4414 114.658 49.9688 115.244C49.5 115.826 48.8477 116.117 48.0117 116.117ZM47.8711 110.287C47.2148 110.287 46.7402 110.469 46.4473 110.832C46.1543 111.195 46.0039 111.773 45.9961 112.566V112.783C45.9961 113.686 46.1465 114.332 46.4473 114.723C46.748 115.109 47.2305 115.303 47.8945 115.303C48.4492 115.303 48.8828 115.078 49.1953 114.629C49.5117 114.18 49.6699 113.561 49.6699 112.771C49.6699 111.971 49.5117 111.357 49.1953 110.932C48.8828 110.502 48.4414 110.287 47.8711 110.287ZM56.332 116L56.1387 115.086H56.0918C55.7715 115.488 55.4512 115.762 55.1309 115.906C54.8145 116.047 54.418 116.117 53.9414 116.117C53.3047 116.117 52.8047 115.953 52.4414 115.625C52.082 115.297 51.9023 114.83 51.9023 114.225C51.9023 112.928 52.9395 112.248 55.0137 112.186L56.1035 112.15V111.752C56.1035 111.248 55.9941 110.877 55.7754 110.639C55.5605 110.396 55.2148 110.275 54.7383 110.275C54.2031 110.275 53.5977 110.439 52.9219 110.768L52.623 110.023C52.9395 109.852 53.2852 109.717 53.6602 109.619C54.0391 109.521 54.418 109.473 54.7969 109.473C55.5625 109.473 56.1289 109.643 56.4961 109.982C56.8672 110.322 57.0527 110.867 57.0527 111.617V116H56.332ZM54.1348 115.314C54.7402 115.314 55.2148 115.148 55.5586 114.816C55.9062 114.484 56.0801 114.02 56.0801 113.422V112.842L55.1074 112.883C54.334 112.91 53.7754 113.031 53.4316 113.246C53.0918 113.457 52.9219 113.787 52.9219 114.236C52.9219 114.588 53.0273 114.855 53.2383 115.039C53.4531 115.223 53.752 115.314 54.1348 115.314ZM61.9922 109.461C62.2773 109.461 62.5332 109.484 62.7598 109.531L62.625 110.434C62.3594 110.375 62.125 110.346 61.9219 110.346C61.4023 110.346 60.957 110.557 60.5859 110.979C60.2188 111.4 60.0352 111.926 60.0352 112.555V116H59.0625V109.578H59.8652L59.9766 110.768H60.0234C60.2617 110.35 60.5488 110.027 60.8848 109.801C61.2207 109.574 61.5898 109.461 61.9922 109.461ZM66.6738 116.117C65.7246 116.117 64.9746 115.828 64.4238 115.25C63.877 114.672 63.6035 113.869 63.6035 112.842C63.6035 111.807 63.8574 110.984 64.3652 110.375C64.877 109.766 65.5625 109.461 66.4219 109.461C67.2266 109.461 67.8633 109.727 68.332 110.258C68.8008 110.785 69.0352 111.482 69.0352 112.35V112.965H64.6113C64.6309 113.719 64.8203 114.291 65.1797 114.682C65.543 115.072 66.0527 115.268 66.709 115.268C67.4004 115.268 68.084 115.123 68.7598 114.834V115.701C68.416 115.85 68.0898 115.955 67.7812 116.018C67.4766 116.084 67.1074 116.117 66.6738 116.117ZM66.4102 110.275C65.8945 110.275 65.4824 110.443 65.1738 110.779C64.8691 111.115 64.6895 111.58 64.6348 112.174H67.9922C67.9922 111.561 67.8555 111.092 67.582 110.768C67.3086 110.439 66.918 110.275 66.4102 110.275Z" fill="#A9A9A9"/>
</g>
<g clip-path="url(#clip4_6584_26136)">
<path d="M9.18031 138.18L2.82031 131.82" stroke="#151515" stroke-linecap="round" stroke-linejoin="bevel"/>
<path d="M9.18031 131.82L2.82031 138.18" stroke="#151515" stroke-linecap="round" stroke-linejoin="bevel"/>
<path d="M20.1738 136.438V140H19.1777V131.434H21.5273C22.5781 131.434 23.3535 131.635 23.8535 132.037C24.3574 132.439 24.6094 133.045 24.6094 133.854C24.6094 134.986 24.0352 135.752 22.8867 136.15L25.2129 140H24.0352L21.9609 136.438H20.1738ZM20.1738 135.582H21.5391C22.2422 135.582 22.7578 135.443 23.0859 135.166C23.4141 134.885 23.5781 134.465 23.5781 133.906C23.5781 133.34 23.4102 132.932 23.0742 132.682C22.7422 132.432 22.207 132.307 21.4688 132.307H20.1738V135.582ZM29.1621 140.117C28.2129 140.117 27.4629 139.828 26.9121 139.25C26.3652 138.672 26.0918 137.869 26.0918 136.842C26.0918 135.807 26.3457 134.984 26.8535 134.375C27.3652 133.766 28.0508 133.461 28.9102 133.461C29.7148 133.461 30.3516 133.727 30.8203 134.258C31.2891 134.785 31.5234 135.482 31.5234 136.35V136.965H27.0996C27.1191 137.719 27.3086 138.291 27.668 138.682C28.0312 139.072 28.541 139.268 29.1973 139.268C29.8887 139.268 30.5723 139.123 31.248 138.834V139.701C30.9043 139.85 30.5781 139.955 30.2695 140.018C29.9648 140.084 29.5957 140.117 29.1621 140.117ZM28.8984 134.275C28.3828 134.275 27.9707 134.443 27.6621 134.779C27.3574 135.115 27.1777 135.58 27.123 136.174H30.4805C30.4805 135.561 30.3438 135.092 30.0703 134.768C29.7969 134.439 29.4062 134.275 28.8984 134.275ZM41.373 140V135.822C41.373 135.311 41.2637 134.928 41.0449 134.674C40.8262 134.416 40.4863 134.287 40.0254 134.287C39.4199 134.287 38.9727 134.461 38.6836 134.809C38.3945 135.156 38.25 135.691 38.25 136.414V140H37.2773V135.822C37.2773 135.311 37.168 134.928 36.9492 134.674C36.7305 134.416 36.3887 134.287 35.9238 134.287C35.3145 134.287 34.8672 134.471 34.582 134.838C34.3008 135.201 34.1602 135.799 34.1602 136.631V140H33.1875V133.578H33.9785L34.1367 134.457H34.1836C34.3672 134.145 34.625 133.9 34.957 133.725C35.293 133.549 35.668 133.461 36.082 133.461C37.0859 133.461 37.7422 133.824 38.0508 134.551H38.0977C38.2891 134.215 38.5664 133.949 38.9297 133.754C39.293 133.559 39.707 133.461 40.1719 133.461C40.8984 133.461 41.4414 133.648 41.8008 134.023C42.1641 134.395 42.3457 134.99 42.3457 135.811V140H41.373ZM49.8984 136.783C49.8984 137.83 49.6348 138.648 49.1074 139.238C48.5801 139.824 47.8516 140.117 46.9219 140.117C46.3477 140.117 45.8379 139.982 45.3926 139.713C44.9473 139.443 44.6035 139.057 44.3613 138.553C44.1191 138.049 43.998 137.459 43.998 136.783C43.998 135.736 44.2598 134.922 44.7832 134.34C45.3066 133.754 46.0332 133.461 46.9629 133.461C47.8613 133.461 48.5742 133.76 49.1016 134.357C49.6328 134.955 49.8984 135.764 49.8984 136.783ZM45.0059 136.783C45.0059 137.604 45.1699 138.229 45.498 138.658C45.8262 139.088 46.3086 139.303 46.9453 139.303C47.582 139.303 48.0645 139.09 48.3926 138.664C48.7246 138.234 48.8906 137.607 48.8906 136.783C48.8906 135.967 48.7246 135.348 48.3926 134.926C48.0645 134.5 47.5781 134.287 46.9336 134.287C46.2969 134.287 45.8164 134.496 45.4922 134.914C45.168 135.332 45.0059 135.955 45.0059 136.783ZM53.0156 140L50.5781 133.578H51.6211L53.0039 137.387C53.3164 138.277 53.5 138.855 53.5547 139.121H53.6016C53.6445 138.914 53.7793 138.486 54.0059 137.838C54.2363 137.186 54.75 135.766 55.5469 133.578H56.5898L54.1523 140H53.0156ZM60.334 140.117C59.3848 140.117 58.6348 139.828 58.084 139.25C57.5371 138.672 57.2637 137.869 57.2637 136.842C57.2637 135.807 57.5176 134.984 58.0254 134.375C58.5371 133.766 59.2227 133.461 60.082 133.461C60.8867 133.461 61.5234 133.727 61.9922 134.258C62.4609 134.785 62.6953 135.482 62.6953 136.35V136.965H58.2715C58.291 137.719 58.4805 138.291 58.8398 138.682C59.2031 139.072 59.7129 139.268 60.3691 139.268C61.0605 139.268 61.7441 139.123 62.4199 138.834V139.701C62.0762 139.85 61.75 139.955 61.4414 140.018C61.1367 140.084 60.7676 140.117 60.334 140.117ZM60.0703 134.275C59.5547 134.275 59.1426 134.443 58.834 134.779C58.5293 135.115 58.3496 135.58 58.2949 136.174H61.6523C61.6523 135.561 61.5156 135.092 61.2422 134.768C60.9688 134.439 60.5781 134.275 60.0703 134.275Z" fill="#A9A9A9"/>
</g>
</g>
</g>
<defs>
<clipPath id="clip0_6584_26136">
<rect width="100" height="143" fill="white"/>
</clipPath>
<clipPath id="clip1_6584_26136">
<rect width="70" height="64" fill="white" transform="translate(0 79)"/>
</clipPath>
<clipPath id="clip2_6584_26136">
<rect width="62" height="16" fill="white" transform="translate(0 79)"/>
</clipPath>
<clipPath id="clip3_6584_26136">
<rect width="70" height="16" fill="white" transform="translate(0 103)"/>
</clipPath>
<clipPath id="clip4_6584_26136">
<rect width="64" height="16" fill="white" transform="translate(0 127)"/>
</clipPath>
</defs>
</svg>
