<svg width="109" height="20" viewBox="0 0 109 20" fill="none" xmlns="http://www.w3.org/2000/svg">
<g clip-path="url(#clip0_6437_39118)">
<path fill-rule="evenodd" clip-rule="evenodd" d="M9.42397 2.65829C9.48153 2.47575 9.59578 2.31632 9.75014 2.20315C9.90449 2.08998 10.0909 2.02896 10.2823 2.02896C10.4737 2.02896 10.6601 2.08998 10.8145 2.20315C10.9688 2.31632 11.0831 2.47575 11.1406 2.65829L12.6906 7.42495H17.6906C17.8889 7.41746 18.0841 7.47507 18.2465 7.58899C18.409 7.7029 18.5296 7.86686 18.5901 8.0558C18.6505 8.24474 18.6475 8.44829 18.5814 8.63533C18.5153 8.82238 18.3897 8.98263 18.224 9.09162L14.1656 12.0333L15.7156 16.8083C15.7769 16.9902 15.7785 17.1869 15.72 17.3697C15.6616 17.5526 15.5463 17.7119 15.3908 17.8245C15.2354 17.9371 15.048 17.9971 14.8561 17.9957C14.6642 17.9943 14.4777 17.9315 14.324 17.8166L10.2573 14.8416L6.19897 17.7916C6.04522 17.9065 5.85877 17.9693 5.66684 17.9707C5.4749 17.9721 5.28754 17.9121 5.13211 17.7995C4.97668 17.6869 4.86133 17.5276 4.80289 17.3447C4.74445 17.1619 4.746 16.9652 4.8073 16.7833L6.3573 12.0083L2.29897 9.06662C2.1332 8.95763 2.00768 8.79738 1.94157 8.61033C1.87546 8.42329 1.8724 8.21975 1.93286 8.0308C1.99333 7.84186 2.11398 7.6779 2.2764 7.56398C2.43881 7.45007 2.63406 7.39246 2.8323 7.39995H7.8323L9.42397 2.65829Z" fill="#151515"/>
<path fill-rule="evenodd" clip-rule="evenodd" d="M31.424 2.65829C31.4815 2.47575 31.5958 2.31632 31.7501 2.20315C31.9045 2.08998 32.0909 2.02896 32.2823 2.02896C32.4737 2.02896 32.6601 2.08998 32.8145 2.20315C32.9688 2.31632 33.0831 2.47575 33.1406 2.65829L34.6906 7.42495H39.6906C39.8889 7.41746 40.0841 7.47507 40.2465 7.58899C40.409 7.7029 40.5296 7.86686 40.5901 8.0558C40.6505 8.24474 40.6475 8.44829 40.5814 8.63533C40.5153 8.82238 40.3897 8.98263 40.224 9.09162L36.1656 12.0333L37.7156 16.8083C37.7769 16.9902 37.7785 17.1869 37.72 17.3697C37.6616 17.5526 37.5463 17.7119 37.3908 17.8245C37.2354 17.9371 37.048 17.9971 36.8561 17.9957C36.6642 17.9943 36.4777 17.9315 36.324 17.8166L32.2573 14.8416L28.199 17.7916C28.0452 17.9065 27.8588 17.9693 27.6668 17.9707C27.4749 17.9721 27.2875 17.9121 27.1321 17.7995C26.9767 17.6869 26.8613 17.5276 26.8029 17.3447C26.7445 17.1619 26.746 16.9652 26.8073 16.7833L28.3573 12.0083L24.299 9.06662C24.1332 8.95763 24.0077 8.79738 23.9416 8.61033C23.8755 8.42329 23.8724 8.21975 23.9329 8.0308C23.9933 7.84186 24.114 7.6779 24.2764 7.56398C24.4388 7.45007 24.6341 7.39246 24.8323 7.39995H29.8323L31.424 2.65829Z" fill="#151515"/>
<path fill-rule="evenodd" clip-rule="evenodd" d="M53.424 2.65829C53.4815 2.47575 53.5958 2.31632 53.7501 2.20315C53.9045 2.08998 54.0909 2.02896 54.2823 2.02896C54.4737 2.02896 54.6601 2.08998 54.8145 2.20315C54.9688 2.31632 55.0831 2.47575 55.1406 2.65829L56.6906 7.42495H61.6906C61.8889 7.41746 62.0841 7.47507 62.2465 7.58899C62.409 7.7029 62.5296 7.86686 62.5901 8.0558C62.6505 8.24474 62.6475 8.44829 62.5814 8.63533C62.5153 8.82238 62.3897 8.98263 62.224 9.09162L58.1656 12.0333L59.7156 16.8083C59.7769 16.9902 59.7785 17.1869 59.72 17.3697C59.6616 17.5526 59.5463 17.7119 59.3908 17.8245C59.2354 17.9371 59.048 17.9971 58.8561 17.9957C58.6642 17.9943 58.4777 17.9315 58.324 17.8166L54.2573 14.8416L50.199 17.7916C50.0452 17.9065 49.8588 17.9693 49.6668 17.9707C49.4749 17.9721 49.2875 17.9121 49.1321 17.7995C48.9767 17.6869 48.8613 17.5276 48.8029 17.3447C48.7445 17.1619 48.746 16.9652 48.8073 16.7833L50.3573 12.0083L46.299 9.06662C46.1332 8.95763 46.0077 8.79738 45.9416 8.61033C45.8755 8.42329 45.8724 8.21975 45.9329 8.0308C45.9933 7.84186 46.114 7.6779 46.2764 7.56398C46.4388 7.45007 46.6341 7.39246 46.8323 7.39995H51.8323L53.424 2.65829Z" fill="#151515"/>
<path fill-rule="evenodd" clip-rule="evenodd" d="M75.424 2.65829C75.4815 2.47575 75.5958 2.31632 75.7501 2.20315C75.9045 2.08998 76.0909 2.02896 76.2823 2.02896C76.4737 2.02896 76.6601 2.08998 76.8145 2.20315C76.9688 2.31632 77.0831 2.47575 77.1406 2.65829L78.6906 7.42495H83.6906C83.8889 7.41746 84.0841 7.47507 84.2465 7.58899C84.409 7.7029 84.5296 7.86686 84.5901 8.0558C84.6505 8.24474 84.6475 8.44829 84.5814 8.63533C84.5153 8.82238 84.3897 8.98263 84.224 9.09162L80.1656 12.0333L81.7156 16.8083C81.7769 16.9902 81.7785 17.1869 81.72 17.3697C81.6616 17.5526 81.5463 17.7119 81.3908 17.8245C81.2354 17.9371 81.048 17.9971 80.8561 17.9957C80.6642 17.9943 80.4777 17.9315 80.324 17.8166L76.2573 14.8416L72.199 17.7916C72.0452 17.9065 71.8588 17.9693 71.6668 17.9707C71.4749 17.9721 71.2875 17.9121 71.1321 17.7995C70.9767 17.6869 70.8613 17.5276 70.8029 17.3447C70.7445 17.1619 70.746 16.9652 70.8073 16.7833L72.3573 12.0083L68.299 9.06662C68.1332 8.95763 68.0077 8.79738 67.9416 8.61033C67.8755 8.42329 67.8724 8.21975 67.9329 8.0308C67.9933 7.84186 68.114 7.6779 68.2764 7.56398C68.4388 7.45007 68.6341 7.39246 68.8323 7.39995H73.8323L75.424 2.65829Z" fill="#151515"/>
<path fill-rule="evenodd" clip-rule="evenodd" d="M97.424 2.65829C97.4815 2.47575 97.5958 2.31632 97.7501 2.20315C97.9045 2.08998 98.0909 2.02896 98.2823 2.02896C98.4737 2.02896 98.6601 2.08998 98.8145 2.20315C98.9688 2.31632 99.0831 2.47575 99.1406 2.65829L100.691 7.42495H105.691C105.889 7.41746 106.084 7.47507 106.247 7.58899C106.409 7.7029 106.53 7.86686 106.59 8.0558C106.651 8.24474 106.647 8.44829 106.581 8.63533C106.515 8.82238 106.39 8.98263 106.224 9.09162L102.166 12.0333L103.716 16.8083C103.777 16.9902 103.778 17.1869 103.72 17.3697C103.662 17.5526 103.546 17.7119 103.391 17.8245C103.235 17.9371 103.048 17.9971 102.856 17.9957C102.664 17.9943 102.478 17.9315 102.324 17.8166L98.2573 14.8416L94.199 17.7916C94.0452 17.9065 93.8588 17.9693 93.6668 17.9707C93.4749 17.9721 93.2875 17.9121 93.1321 17.7995C92.9767 17.6869 92.8613 17.5276 92.8029 17.3447C92.7445 17.1619 92.746 16.9652 92.8073 16.7833L94.3573 12.0083L90.299 9.06662C90.1332 8.95763 90.0077 8.79738 89.9416 8.61033C89.8755 8.42329 89.8724 8.21975 89.9329 8.0308C89.9933 7.84186 90.114 7.6779 90.2764 7.56399C90.4388 7.45007 90.6341 7.39246 90.8323 7.39995H95.8323L97.424 2.65829Z" stroke="#EBEBEB" stroke-width="1.5" stroke-linecap="round" stroke-linejoin="round"/>
</g>
<defs>
<clipPath id="clip0_6437_39118">
<rect width="108" height="20" fill="white" transform="translate(0.256836)"/>
</clipPath>
</defs>
</svg>
